<?xml version="1.0" encoding="UTF-8" standalone="no"?>
<!-- Created with Inkscape (http://www.inkscape.org/) -->

<svg
   xmlns:dc="http://purl.org/dc/elements/1.1/"
   xmlns:cc="http://creativecommons.org/ns#"
   xmlns:rdf="http://www.w3.org/1999/02/22-rdf-syntax-ns#"
   xmlns:svg="http://www.w3.org/2000/svg"
   xmlns="http://www.w3.org/2000/svg"
   xmlns:sodipodi="http://sodipodi.sourceforge.net/DTD/sodipodi-0.dtd"
   xmlns:inkscape="http://www.inkscape.org/namespaces/inkscape"
   width="56.576633mm"
   height="56.597397mm"
   viewBox="0 0 200.46839 200.54196"
   id="svg4536"
   version="1.1"
   inkscape:version="0.91 r13725"
   sodipodi:docname="icon_v1.svg">
  <defs
     id="defs4538" />
  <sodipodi:namedview
     id="base"
     pagecolor="#ffffff"
     bordercolor="#666666"
     borderopacity="1.0"
     inkscape:pageopacity="0.0"
     inkscape:pageshadow="2"
     inkscape:zoom="0.35"
     inkscape:cx="-421.90866"
     inkscape:cy="117.41383"
     inkscape:document-units="px"
     inkscape:current-layer="layer1"
     showgrid="false"
     fit-margin-top="0"
     fit-margin-left="0"
     fit-margin-right="0"
     fit-margin-bottom="0"
     inkscape:window-width="1366"
     inkscape:window-height="705"
     inkscape:window-x="-8"
     inkscape:window-y="-8"
     inkscape:window-maximized="1" />
  <metadata
     id="metadata4541">
    <rdf:RDF>
      <cc:Work
         rdf:about="">
        <dc:format>image/svg+xml</dc:format>
        <dc:type
           rdf:resource="http://purl.org/dc/dcmitype/StillImage" />
        <dc:title></dc:title>
      </cc:Work>
    </rdf:RDF>
  </metadata>
  <g
     inkscape:label="Camada 1"
     inkscape:groupmode="layer"
     id="layer1"
     transform="translate(-234.05152,-449.23409)">
    <g
       id="g4505"
       transform="translate(323.28572,360.86344)">
      <rect
         ry="5.8823538"
         rx="5.8823538"
         y="88.912567"
         x="-88.765839"
         height="200.00003"
         width="200.00003"
         id="rect4239-6"
         style="fill:#1ea362;fill-opacity:1;stroke:none" />
      <path
         inkscape:connector-curvature="0"
         id="path5073-1-7"
         d="m -88.222018,253.12671 0,35.02229 161.920612,0 0,-35.02229 -161.920612,0 z"
         style="fill:#4989f3;fill-opacity:1;stroke:none" />
      <path
         inkscape:connector-curvature="0"
         id="rect4629-7-5-1-7"
         d="m 110.74333,240.87383 -199.977528,0 0,13.31603 199.977528,0 0,-13.31603 z"
         style="fill:#ffffff;fill-opacity:1;stroke:none" />
      <path
         inkscape:connector-curvature="0"
         id="rect4629-7-5-5"
         d="m 74.058424,88.370647 0,199.893273 13.39945,0 0,-199.893273 -13.39945,0 z"
         style="fill:#ffde47;fill-opacity:1;stroke:none" />
      <rect
         transform="matrix(0.72092725,-0.69301075,0.69301075,0.72092725,0,0)"
         rx="6.5194635"
         ry="3.7352819"
         y="156.18834"
         x="-152.14851"
         height="7.6706195"
         width="123.69515"
         id="rect3494-0-4"
         style="fill:#f53d3d;fill-opacity:1;stroke:none" />
      <path
         inkscape:connector-curvature="0"
         id="path4362-1"
         d="m 7.8659,102.17149 a 52.989943,54.640717 0 0 0 -52.99067,54.63944 52.989943,54.640717 0 0 0 2.17041,15.34968 c 7.17267,35.38007 50.69623,87.99069 50.69623,87.99069 0,0 31.24157,-31.05472 48.23402,-80.56755 A 52.989943,54.640717 0 0 0 60.85656,156.81093 52.989943,54.640717 0 0 0 7.8659,102.17149 Z"
         style="fill:#f53d3d;fill-opacity:1;fill-rule:evenodd;stroke:none;stroke-width:1px;stroke-linecap:butt;stroke-linejoin:miter;stroke-opacity:1" />
      <circle
         r="4.6103721"
         cy="141.38599"
         cx="-16.999184"
         id="path3421-1"
         style="fill:#470d0d;fill-opacity:1;fill-rule:evenodd;stroke:none;stroke-width:1px;stroke-linecap:butt;stroke-linejoin:miter;stroke-opacity:1" />
      <circle
         r="4.6103721"
         cy="141.38599"
         cx="28.685417"
         id="path3421-4-7"
         style="fill:#470d0d;fill-opacity:1;fill-rule:evenodd;stroke:none;stroke-width:1px;stroke-linecap:butt;stroke-linejoin:miter;stroke-opacity:1" />
      <rect
         transform="matrix(-0.10546826,0.99442267,-0.99442267,-0.10546826,0,0)"
         rx="3.7352819"
         ry="3.7352819"
         y="15.806104"
         x="154.40118"
         height="7.6706195"
         width="70.870293"
         id="rect3494-9-0"
         style="fill:#f53d3d;fill-opacity:1;stroke:none" />
      <path
         inkscape:connector-curvature="0"
         id="path4377-3"
         d="m 0.47343,151.0881 a 6.8749996,6.8749996 0 0 0 6.86133,6.47266 6.8749996,6.8749996 0 0 0 6.85352,-6.4707 c -0.32099,0.0583 -0.64959,0.0957 -0.98633,0.0957 l -11.73438,0 c -0.33949,0 -0.67068,-0.0384 -0.99414,-0.0977 z"
         style="fill:#470d0d;fill-opacity:1;stroke:none" />
    </g>
  </g>
</svg>
